/* XPM */
static char *result[] = {
/* columns rows colors chars-per-pixel */
"32 32 151 2 ",
"   c #243291",
".  c #253291",
"X  c #253292",
"o  c #263392",
"O  c #273492",
"+  c #273493",
"@  c #283593",
"#  c #293693",
"$  c #2B3794",
"%  c #2A3795",
"&  c #2A3796",
"*  c #2B3894",
"=  c #2B3897",
"-  c #2C3995",
";  c #2D3A95",
":  c #2D3A96",
">  c #2C3A97",
",  c #2E3B98",
"<  c #2F3C98",
"1  c #2F3D9C",
"2  c #303E9E",
"3  c #303F9F",
"4  c #31409F",
"5  c #34429E",
"6  c #38449B",
"7  c #38449C",
"8  c #39449C",
"9  c #39459C",
"0  c #3544A5",
"q  c #3645A6",
"w  c #3645A7",
"e  c #3846A1",
"r  c #3E4BA6",
"t  c #3747AA",
"y  c #3748AA",
"u  c #3848AA",
"i  c #3848AB",
"p  c #3949AB",
"a  c #3B4BAC",
"s  c #3C4CAD",
"d  c #3D4DAD",
"f  c #3E4EAE",
"g  c #4551A2",
"h  c #4150AB",
"j  c #4352AF",
"k  c #545FAC",
"l  c #4453B0",
"z  c #4554B0",
"x  c #4454B2",
"c  c #4757B4",
"v  c #4957B0",
"b  c #4857B4",
"n  c #4A59B3",
"m  c #4C5AB2",
"M  c #4D5CB3",
"N  c #4B5AB5",
"B  c #505EB4",
"V  c #5762AB",
"C  c #5862AB",
"Z  c #5C66AE",
"A  c #5F69AF",
"S  c #5362BB",
"D  c #5665BC",
"F  c #5766BC",
"G  c #5867BE",
"H  c #5968BD",
"J  c #5968BE",
"K  c #5969BF",
"L  c #5A69BF",
"P  c #5B69BF",
"I  c #5A6ABF",
"U  c #5B6ABF",
"Y  c #616BB0",
"T  c #6874BF",
"R  c #737BB9",
"E  c #5A6AC0",
"W  c #5B6AC0",
"Q  c #5C6BC0",
"!  c #5D6BC0",
"~  c #5D6BC1",
"^  c #5D6CC1",
"/  c #5E6DC1",
"(  c #5F6EC1",
")  c #606EC1",
"_  c #606FC2",
"`  c #6876C5",
"'  c #707CC6",
"]  c #727FC8",
"[  c #727FC9",
"{  c #7D85BE",
"}  c #7782C3",
"|  c #7681C5",
" . c #7B85C7",
".. c #808AC9",
"X. c #808BCE",
"o. c #808CCE",
"O. c #969DCA",
"+. c #979DCB",
"@. c #989FCC",
"#. c #8691D0",
"$. c #8792D1",
"%. c #8793D1",
"&. c #949ED6",
"*. c #9BA4D5",
"=. c #9DA5D9",
"-. c #9DA6D8",
";. c #9DA6D9",
":. c #A4AAD1",
">. c #A5AAD2",
",. c #ABB0D5",
"<. c #ADB3DB",
"1. c #B0B7E1",
"2. c #B1B8E0",
"3. c #B1B8E1",
"4. c #B9BFE2",
"5. c #BAC0E4",
"6. c #BAC1E4",
"7. c #BBC1E5",
"8. c #BFC5E6",
"9. c #BFC6E7",
"0. c #C0C5E6",
"q. c #CACDE4",
"w. c #CACDE5",
"e. c #CBCFE9",
"r. c #D7DAEF",
"t. c #D7DBF0",
"y. c #DEE0EE",
"u. c #E3E5F1",
"i. c #E6E8F4",
"p. c #E6E8F5",
"a. c #EAEBF7",
"s. c #EBECF5",
"d. c #EBECF6",
"f. c #EAECF7",
"g. c #ECEDF5",
"h. c #F0F1F9",
"j. c #F3F4F9",
"k. c #F3F4FA",
"l. c #F5F6FB",
"z. c #F6F7FB",
"x. c #F6F7FC",
"c. c #F8F9FC",
"v. c #F9F9FC",
"b. c #FAFAFD",
"n. c #FBFBFD",
"m. c #FBFCFD",
"M. c #FCFCFE",
"N. c #FCFDFE",
"B. c #FEFEFF",
"V. c white",
"C. c None",
/* pixels */
"C.C.C.C.C.C.C.C.C.C.C.C.C.C.C.C.C.C.C.C.C.C.C.C.C.C.C.C.C.C.C.C.",
"C.C.C.C.C.C.C.C.C.C.C.C.C.C.C.C.C.C.C.C.C.C.C.C.C.C.C.C.C.C.C.C.",
"C.C.C.C.C.C.C.C.C.C.C.C.C.C.Q Q Q C.C.C.C.C.C.C.C.C.C.C.C.C.C.C.",
"C.C.C.C.C.C.C.C.C.C.C.C.C.Q Q Q Q Q Q C.C.C.C.C.C.C.C.C.C.C.C.C.",
"C.C.C.C.C.C.C.C.C.C.C.Q Q Q Q Q Q Q Q Q Q C.C.C.C.C.C.C.C.C.C.C.",
"C.C.C.C.C.C.C.C.C.C.Q Q Q I L L L L U Q Q Q C.C.C.C.C.C.C.C.C.C.",
"C.C.C.C.C.C.C.Q Q Q Q L ) [ $.&.&.%.[ _ I W Q Q Q C.C.C.C.C.C.C.",
"C.C.C.C.C.C.Q Q Q W ) #.8.p.z.b.b.x.p.8.#.( W Q Q Q C.C.C.C.C.C.",
"C.C.C.C.Q Q Q Q U ` 2.h.V.V.V.V.V.V.V.V.h.1.` W Q Q ~ G C.C.C.C.",
"C.C.C.Q Q Q Q W ` 0.N.V.V.V.V.V.V.V.V.V.V.N.0.` W U S x s C.C.C.",
"C.C.C.Q Q Q Q ( 1.N.V.V.V.V.V.M.M.V.V.V.V.V.B.3.J b s p p C.C.C.",
"C.C.C.Q Q Q L #.h.V.V.V.V.f.7.;.-.6.a.V.V.V.d.*.l p p p p C.C.C.",
"C.C.C.Q Q Q ) 8.V.V.V.V.r.o./ L K / o.t.k.4.T d i p p p p C.C.C.",
"C.C.C.Q Q U ] p.V.V.V.a.X.L Q Q Q Q J ' | j t p p p p p p C.C.C.",
"C.C.C.Q Q L %.z.V.V.V.6./ Q Q ! Q D c a t i p p p p p p p C.C.C.",
"C.C.C.Q Q L &.b.V.V.M.;.L Q Q F N f p p p p p p p p p p p C.C.C.",
"C.C.C.Q Q L &.b.V.V.M.=.E H v 5 2 w p p p p p p p p p p p C.C.C.",
"C.C.C.Q Q L %.z.V.V.V.5.B e % O @ = 4 w y u p p p p p p p C.C.C.",
"C.C.C.Q Q I ] p.V.V.V.i.Z   O @ @ O o k ..n t i p p p p p C.C.C.",
"C.C.C.Q Q Q _ 9.V.V.V.V.w.V $ o X * C q.v.e. .z p p p p p C.C.C.",
"C.C.C.Q ! Q D } g.V.V.V.V.u.:.{ { >.u.V.V.V.l.<.h u p p p C.C.C.",
"C.C.C.^ P M e < +.n.V.V.V.V.V.n.n.V.V.V.V.V.M.@., 1 q p p C.C.C.",
"C.C.C.m r > @ O 7 ,.m.V.V.V.V.V.V.V.V.V.V.n.,.9 O @ & 3 0 C.C.C.",
"C.C.C.C.@ @ @ @ o 8 O.s.V.V.V.V.V.V.V.V.s.O.6 O @ @ @ # C.C.C.C.",
"C.C.C.C.C.C.@ @ @ O - A ,.y.j.c.c.j.y.,.A - O @ @ @ C.C.C.C.C.C.",
"C.C.C.C.C.C.C.@ @ @ @ o : g Y R R Y g ; o @ @ @ @ C.C.C.C.C.C.C.",
"C.C.C.C.C.C.C.C.C.C.@ @ @ o . . . . o + @ @ C.C.C.C.C.C.C.C.C.C.",
"C.C.C.C.C.C.C.C.C.C.C.@ @ @ @ @ @ @ @ @ @ C.C.C.C.C.C.C.C.C.C.C.",
"C.C.C.C.C.C.C.C.C.C.C.C.C.@ @ @ @ @ @ C.C.C.C.C.C.C.C.C.C.C.C.C.",
"C.C.C.C.C.C.C.C.C.C.C.C.C.C.C.@ @ C.C.C.C.C.C.C.C.C.C.C.C.C.C.C.",
"C.C.C.C.C.C.C.C.C.C.C.C.C.C.C.C.C.C.C.C.C.C.C.C.C.C.C.C.C.C.C.C.",
"C.C.C.C.C.C.C.C.C.C.C.C.C.C.C.C.C.C.C.C.C.C.C.C.C.C.C.C.C.C.C.C."
};
