/* XPM */
static char *result[] = {
/* columns rows colors chars-per-pixel */
"32 32 157 2 ",
"   c #0D110E",
".  c #10120E",
"X  c #0F1410",
"o  c #121612",
"O  c #151916",
"+  c #1A1A15",
"@  c #111718",
"#  c #151A1B",
"$  c #1A1E1B",
"%  c #1D211F",
"&  c #21221E",
"*  c #2F251D",
"=  c #1C1F24",
"-  c #1E2223",
";  c #1F2529",
":  c #222423",
">  c #292521",
",  c #262927",
"<  c #2D2A26",
"1  c #23252A",
"2  c #25292C",
"3  c #2A2C2B",
"4  c #342621",
"5  c #312C27",
"6  c #312E2C",
"7  c #2F302E",
"8  c #33312D",
"9  c #38332F",
"0  c #272D31",
"q  c #2B2D35",
"w  c #2D2F39",
"e  c #2E3131",
"r  c #2F3139",
"t  c #343533",
"y  c #31333C",
"u  c #373A3A",
"i  c #3D3C3B",
"p  c #423534",
"a  c #4E3730",
"s  c #453D36",
"d  c #4D3C33",
"f  c #53453D",
"g  c #5F4A3D",
"h  c #694F3F",
"j  c #424342",
"k  c #4F4641",
"l  c #5C4B44",
"z  c #515353",
"x  c #67554C",
"c  c #705A4F",
"v  c #685853",
"b  c #7B6454",
"n  c #80594D",
"m  c #80614F",
"M  c #876550",
"N  c #8C6C56",
"B  c #82665B",
"V  c #8E6958",
"C  c #926455",
"Z  c #946E57",
"A  c #9A6D52",
"S  c #957157",
"D  c #A76E5B",
"F  c #A1735B",
"G  c #AA7B5E",
"H  c #957564",
"J  c #90766B",
"K  c #B56D60",
"L  c #A17761",
"P  c #A57A64",
"I  c #AA7A60",
"U  c #A47D69",
"Y  c #B07F64",
"T  c #9D847B",
"R  c #AA8160",
"E  c #B48164",
"W  c #B48369",
"Q  c #B4896D",
"!  c #BB8A6C",
"~  c #A18070",
"^  c #AB8470",
"/  c #AB8878",
"(  c #BC8D73",
")  c #B38C7B",
"_  c #BE9070",
"`  c #B5927A",
"'  c #BC937D",
"]  c #C58F66",
"[  c #C3906E",
"{  c #C08F75",
"}  c #D5827D",
"|  c #D38E79",
" . c #C39474",
".. c #CC957B",
"X. c #C4987C",
"o. c #CC9D7E",
"O. c #D49A7B",
"+. c #D9A47E",
"@. c #B59281",
"#. c #BA9580",
"$. c #BE9887",
"%. c #BA9B8E",
"&. c #D38F81",
"*. c #DA8884",
"=. c #C59183",
"-. c #C49B83",
";. c #CB9E82",
":. c #D59484",
">. c #D39B81",
",. c #CEA285",
"<. c #CFA58C",
"1. c #D2A385",
"2. c #D9A187",
"3. c #D3A58B",
"4. c #DCA68F",
"5. c #D4A98E",
"6. c #DBAB8C",
"7. c #CEA291",
"8. c #CFAB96",
"9. c #D2A691",
"0. c #DAA792",
"q. c #D5AB93",
"w. c #DAAD93",
"e. c #DCAF99",
"r. c #DFB194",
"t. c #DEB49B",
"y. c #E1A38F",
"u. c #EBA993",
"i. c #E1B295",
"p. c #E4B59A",
"a. c #E3B89E",
"s. c #EABB9F",
"d. c #EAB7A2",
"f. c #E4BCA4",
"g. c #EABBA2",
"h. c #F4BDA3",
"j. c #F1BEA8",
"k. c #EDC1A5",
"l. c #ECC3AB",
"z. c #EEC8AE",
"x. c #F1C3A5",
"c. c #F2C5AA",
"v. c #F3C9AE",
"b. c #F9CBAE",
"n. c #EDC7B2",
"m. c #EDC9B2",
"M. c #F7C7B2",
"N. c #F8C7B0",
"B. c #F4CBB3",
"V. c #FACCB4",
"C. c #F3CFB9",
"Z. c #FBCEB8",
"A. c #FCD1B7",
"S. c #FCD1BB",
"D. c #FBD7C4",
"F. c #FBD9C6",
"G. c None",
/* pixels */
"G.G.G.G.G.G.G.G.G.G.G.G.G.G.G.G.G.G.G.G.G.G.G.G.G.G.G.G.G.G.G.G.",
"G.G.G.G.G.G.G.G.G.G.G.G.G.G.G.G.G.G.G.G.G.G.G.G.G.G.G.G.G.G.G.G.",
"G.G.G.G.G.G.G.G.G.G.G.G.G.G.G.f z z j G.G.G.G.G.G.G.G.G.G.G.G.G.",
"G.G.G.G.G.G.G.G.G.G.G.G.G.t e 7 e t t t i j G.G.G.G.G.G.G.G.G.G.",
"G.G.G.G.G.G.G.G.G.G.9 i 7 9 e 3 7 < & , 5 8 5 G.G.G.G.G.G.G.G.G.",
"G.G.G.G.G.G.G.G.< < > 3 , : % % % % # O % % % < G.G.G.G.G.G.G.G.",
"G.G.G.G.G.G.G.< 7 7 * % % % O o # % % # % % % % % G.G.G.G.G.G.G.",
"G.G.G.G.G.G.G.< 8 8 7 % O # - - ; - % % % % O X o . G.G.G.G.G.G.",
"G.G.G.G.G.G.5 8 < 3 3 - - 2 , , , % % % o % # X o . G.G.G.G.G.G.",
"G.G.G.G.G.3 9 6 , < , 3 < t u 3 3 ; % o o % % o o o . G.G.G.G.G.",
"G.G.G.G.G.3 8 8 : < 3 3 3 t t t 3 e , - % : & o . o + G.G.G.G.G.",
"G.G.G.G.G.G.< 3 : t f s 6 < : : , % O % % X o   o # o G.G.G.G.G.",
"G.G.G.G.G.G.< 3 - g ` -.%.T v 9 f x f * . . .   o + G.G.G.G.G.G.",
"G.G.G.G.G.G.n d 5 M ` ' / U U ) #.8.@.b l d d * o G.G.G.G.G.G.G.",
"G.G.G.G.G.G.G.F c 6.+.] R Z Y ;.3.{ R U U P L h a G.G.G.G.G.G.G.",
"G.G.G.G.G.G.G.| H g.c.s.q.@.4.c.c...o./ ^ W ! m C G.G.G.G.G.G.G.",
"G.G.G.G.G.G.G.u.' g.A.Z.N.M.Z.D.c.O.6.g.p.4.o.V D G.G.G.G.G.G.G.",
"G.G.G.G.G.G.G.h.e.f.V.Z.Z.V.M.Z.M.:.2.j.g.w.-.P G.G.G.G.G.G.G.G.",
"G.G.G.G.G.G.G.G.G.f.v.V.Z.M.g.0.>.( >.d.d.5.-.G.G.G.G.G.G.G.G.G.",
"G.G.G.G.G.G.G.G.G.f.x.b.V.V.c.u.0...3.i.w.<.-.G.G.G.G.G.G.G.G.G.",
"G.G.G.G.G.G.G.G.G.G.g.x.x.6.&.*.*.K W 5.3.,.-.G.G.G.G.G.G.G.G.G.",
"G.G.G.G.G.G.G.G.G.G.t.p.x.x.s.y.:.| 1.6.o.' G.G.G.G.G.G.G.G.G.G.",
"G.G.G.G.G.G.G.G.G.G.t.1.w.x.b.x.f.p.w.1.Q ^ G.G.G.G.G.G.G.G.G.G.",
"G.G.G.G.G.G.G.G.G.G.5.i.! ! 1.r.9.;.( F G G.G.G.G.G.G.G.G.G.G.G.",
"G.G.G.G.G.G.G.G.G., ` c.6.! G S A A A G  .H G.G.G.G.G.G.G.G.G.G.",
"G.G.G.G.G.G.G.G.2 4 X.b.k.p.s.r.o.[ !  .o.b e G.G.G.G.G.G.G.G.G.",
"G.G.G.G.G.G.G.G.0 g i.b.c.p.p.a.1. ._ o.,.N - 1 1 G.G.G.G.G.G.G.",
"G.G.G.G.G.r 1 1 7 b c.B.v.k.a.5.,.X.X.,.,.Z : # - - 1 2 G.G.G.G.",
"G.G.G.w y y q = 1 b l.z.z.z.l.f.q.-.,.5.;.V - # = = = = ; 1 1 G.",
"r r y y r w q ; ; k 8.m.z.l.l.t.5.,.q.5.-.b $ @ = 1 1 ; - 1 : 1 ",
"w w r y y r r 1 ; 0 J n.C.C.l.t.5.q.t.q.9.l @ # = 2 2 2 1 1 1 , ",
"q w q q r r y y 2 0 i <.F.D.C.l.f.n.n.z.=.q # = 2 y 2 2 2 1 2 2 "
};
