/* XPM */
static char *result[] = {
/* columns rows colors chars-per-pixel */
"32 32 142 2 ",
"   c #663E15",
".  c #6A431C",
"X  c #6E4623",
"o  c #704926",
"O  c #734B2C",
"+  c #76532B",
"@  c #7B572F",
"#  c #694F37",
"$  c #774F32",
"%  c #775234",
"&  c #795235",
"*  c #7F5B35",
"=  c #7B5339",
"-  c #7D5C38",
";  c #6A5541",
":  c #6D5B4D",
">  c #6F5F55",
",  c #6F625C",
"<  c #776556",
"1  c #7D6A5D",
"2  c #6E6461",
"3  c #706560",
"4  c #766A65",
"5  c #7C6F65",
"6  c #726A6C",
"7  c #726E72",
"8  c #7C6F71",
"9  c #7E7176",
"0  c #73727A",
"q  c #7C737B",
"w  c #8C5130",
"e  c #815D36",
"r  c #85573E",
"t  c #85623D",
"y  c #875D4C",
"u  c #955B42",
"i  c #9A5F48",
"p  c #805F52",
"a  c #866342",
"s  c #896646",
"d  c #8C6C46",
"f  c #86624C",
"g  c #8D6B49",
"h  c #91704C",
"j  c #8F685D",
"k  c #926651",
"l  c #9B695D",
"z  c #8F765F",
"x  c #957553",
"c  c #987756",
"v  c #977855",
"b  c #9B7855",
"n  c #9D7E5D",
"m  c #B16551",
"M  c #B86A53",
"N  c #B27156",
"B  c #896A63",
"V  c #826C6B",
"C  c #837062",
"Z  c #947D64",
"A  c #867D7A",
"S  c #C36B58",
"D  c #C07B63",
"F  c #D67263",
"G  c #D97365",
"H  c #DC7568",
"J  c #9F805D",
"K  c #A1825F",
"L  c #8E8077",
"P  c #98897B",
"I  c #A38463",
"U  c #A68866",
"Y  c #A2886C",
"T  c #AB8E6E",
"R  c #BC8066",
"E  c #BC856B",
"W  c #B58A6C",
"Q  c #AC8F70",
"!  c #AD9274",
"~  c #B29576",
"^  c #BA9476",
"/  c #B39877",
"(  c #B49979",
")  c #BE9B7D",
"_  c #C3997E",
"`  c #747682",
"'  c #757988",
"]  c #787B8B",
"[  c #777E93",
"{  c #797F94",
"}  c #788097",
"|  c #77829B",
" . c #79839B",
".. c #7A86A2",
"X. c #7A88A6",
"o. c #A19693",
"O. c #A59A91",
"+. c #A59F9E",
"@. c #BDA283",
"#. c #B3A08C",
"$. c #9197A8",
"%. c #9BA5BB",
"&. c #A6A0A3",
"*. c #AAA9AF",
"=. c #AEB1BD",
"-. c #C69D82",
";. c #C4A486",
":. c #C1A789",
">. c #C4AA8C",
",. c #CBA98E",
"<. c #C7AE91",
"1. c #C9B193",
"2. c #CEB699",
"3. c #CFB89B",
"4. c #D0B498",
"5. c #D3BB9E",
"6. c #D4BDA1",
"7. c #CBBFB2",
"8. c #E2BEA5",
"9. c #D7C0A4",
"0. c #DAC5A9",
"q. c #DCC8AC",
"w. c #E9C3AB",
"e. c #E2CDB3",
"r. c #EECDB5",
"t. c #FDC9B7",
"y. c #FCCDB9",
"u. c #E6D2B8",
"i. c #EBD7BE",
"p. c #FED2BE",
"a. c #EDDBC2",
"s. c #FED4C0",
"d. c #F1DDC5",
"f. c #FCDBC5",
"g. c #FFDEC9",
"h. c #F2E0C7",
"j. c #F5E3CB",
"k. c #FAE6CE",
"l. c #FEEDD5",
"z. c #FFEFD8",
"x. c #FFF0D9",
"c. c None",
/* pixels */
"c.c.c.c.c.c.c.c.c.c.c.c.c.. X X o o o X X c.c.c.c.c.c.c.c.c.c.c.",
"c.c.c.c.c.c.c.c.c.c.c.c.X $ % = = = = = $ O X c.c.c.c.c.c.c.c.c.",
"c.c.c.c.c.c.c.c.c.c.X O % = = = = = = = = = & o c.c.c.c.c.c.c.c.",
"c.c.c.c.c.c.c.c.c.X $ = = = = = = = = = = = = = O c.c.c.c.c.c.c.",
"c.c.c.c.c.c.c.c.. $ = = = = = = $ $ = = = = = = = O c.c.c.c.c.c.",
"c.c.c.c.c.c.c.c.$ = = = = = = $ a Z % = = = = = = & X c.c.c.c.c.",
"c.c.c.c.c.c.c.X = = = = = = $ s 6.j.~ % $ = = = = = $ c.c.c.c.c.",
"c.c.c.c.c.c.c.O = = = = % % K e.z.z.k.1.s $ = = = = % o c.c.c.c.",
"c.c.c.c.c.c.c.$ = & $ = x 1.k.z.l.z.x.z.u.! a % % = = o c.c.c.c.",
"c.c.c.c.c.c.X % % a I ~ 1.a.z.z.z.z.l.l.z.u.@.U x r % $ c.c.c.c.",
"c.c.c.c.c.c.X $ g e.a.6.6.0.l.z.l.z.z.z.l.5.6.6.d.:.& O c.c.c.c.",
"c.c.c.c.c.c.c.o Q l.z.l.z.l.l.l.x.l.l.z.l.l.z.l.l.i.a o c.c.c.c.",
"c.c.c.c.c.c.t v >.x.l.l.k.l.z.z.l.l.l.x.l.l.k.l.z.j.U J c.c.c.c.",
"c.c.c.c.c.c.2.0.6.x.j.( Q 0.l.l.z.x.z.l.l.@.! 1.l.k.>.a.@.c.c.c.",
"c.c.c.c.c.t e.q.6.z.l.I + ~ l.z.l.d.l.x.j.d - <.z.j.>.k.9.c.c.c.",
"c.c.c.c.c.c.>.e.3.z.k.8.~ e.z.z.h.3.l.x.l.6.~ r.l.j.>.d.( c.c.c.",
"c.c.c.c.c.c.c./ ( f.y.t.p.l.k.l.l.h.l.k.l.k.y.t.s.e.T ( c.c.c.c.",
"c.c.c.c.c.c.c.c.d w.t.t.y.k.>.W _ -._ T 6.g.t.t.y.;.c.c.c.c.c.c.",
"c.c.c.c.c.c.c.c.c.) y.y.f.l.2.M G H F N e.k.p.t.w.b c.c.c.c.c.c.",
"c.c.c.c.c.h I c.c.c.4.k.l.z.k.,.D D R 5.l.l.l.d.W c.c.c.c.c.c.c.",
"c.c.c.c.x <.@.I c.c.* >.j.z.x.l.h.a.j.x.x.x.u.U o c.c.c.c.c.c.c.",
"c.c.c.t 6.6.@ J I . % & c :.e.h.j.k.j.a.9./ s % O c.c.c.c.c.c.c.",
"c.c.c.x a.k.4.0.x X % % X . e s / >.Y t + . o % % . c.c.c.c.c.c.",
"c.c.c.c.:.e.k.@.c.. X X c.c.4 , Y <.z 2 < c.  X . . c.c.c.c.c.c.",
"c.c.c.c.c.* J 5 # c.c.c.; L =.$.P 7.A %.*.5 ; c.c.c.c.c.c.c.c.c.",
"c.c.c.c.c.c.7 ..6 c.c.0 [ 6 C &.o.#.+.o.1 0 [ : c.c.c.c.c.c.c.c.",
"c.c.c.c.c.c., ..[ : 0 ..' 0 f i y % k u 4 0 } 7 c.c.c.c.c.c.c.c.",
"c.c.c.c.c.c.# ` X.[ ..X.7 0 { 8 r w y A } 7 [ ` c.c.c.c.c.c.c.c.",
"c.c.c.c.c.c.c., } X. .7 # 7 X. .j S 9 ....6 } ` c.c.c.c.c.c.c.c.",
"c.c.c.c.c.c.c.c.> 7 , c.c.7 X. .l F V X...6 } ` c.c.c.c.c.c.c.c.",
"c.c.c.c.c.c.c.c.c.c.c.c.c.3 ....B m q X.} 6  .7 c.c.c.c.c.c.c.c.",
"c.c.c.c.c.c.c.c.c.c.c.c.c.< ..X.] 6 } X.} 7 ..3 c.c.c.c.c.c.c.c."
};
