/* XPM */
static char *_740ed1bbb134b93870b613bb0c9256avYhOewJ5UQE0LiC7[] = {
/* columns rows colors chars-per-pixel */
"64 64 210 2 ",
"   c None",
".  c #243291",
"X  c #253291",
"o  c #253292",
"O  c #253392",
"+  c #263392",
"@  c #273492",
"#  c #273493",
"$  c #283593",
"%  c #293693",
"&  c #283594",
"*  c #293694",
"=  c #283695",
"-  c #2A3794",
";  c #2A3795",
":  c #2B3895",
">  c #2B3897",
",  c #2C3998",
"<  c #2D3B98",
"1  c #2D3B9A",
"2  c #2E3C9C",
"3  c #303C97",
"4  c #313E98",
"5  c #303D9B",
"6  c #313F9B",
"7  c #323F9B",
"8  c #303F9F",
"9  c #344099",
"0  c #37439B",
"q  c #36449F",
"w  c #3F4B9F",
"e  c #3140A0",
"r  c #3240A1",
"t  c #3342A2",
"y  c #3744A0",
"u  c #3443A4",
"i  c #3444A6",
"p  c #3545A6",
"a  c #3A48A3",
"s  c #3D49A0",
"d  c #3B49A4",
"f  c #3C4AA4",
"g  c #3746A8",
"h  c #3747A9",
"j  c #3646AA",
"k  c #3647AA",
"l  c #3747AA",
"z  c #3847A9",
"x  c #3848AA",
"c  c #3949AA",
"v  c #3848AB",
"b  c #3949AB",
"n  c #3A4AAB",
"m  c #3A4AAC",
"M  c #3B4BAC",
"N  c #3D4CAD",
"B  c #3D4DAD",
"V  c #3E4EAD",
"C  c #3F4FAF",
"Z  c #414FA9",
"A  c #404FAE",
"S  c #4550A2",
"D  c #4651A2",
"F  c #4E59A6",
"G  c #4250AA",
"H  c #4552A8",
"J  c #4050AF",
"K  c #4554AD",
"L  c #4755AE",
"P  c #4856AF",
"I  c #505AA7",
"U  c #515CA8",
"Y  c #4352B0",
"T  c #4353B1",
"R  c #4554B0",
"E  c #4655B0",
"W  c #4756B1",
"Q  c #4656B3",
"!  c #4757B3",
"~  c #4D5CB3",
"^  c #4B5AB4",
"/  c #4A5AB5",
"(  c #4B5AB6",
")  c #4C5BB5",
"_  c #4E5CB4",
"`  c #4D5CB7",
"'  c #4E5EB8",
"]  c #4F5EB8",
"[  c #515FB5",
"{  c #505FB7",
"}  c #5762AD",
"|  c #5361B6",
" . c #5261B7",
".. c #5261BA",
"X. c #5362BA",
"o. c #5563BB",
"O. c #5665BB",
"+. c #5765BB",
"@. c #5564BC",
"#. c #5665BC",
"$. c #5867BE",
"%. c #5968BD",
"&. c #5868BE",
"*. c #5968BE",
"=. c #5969BF",
"-. c #5A69BF",
";. c #5A6ABF",
":. c #5B6ABF",
">. c #6370BD",
",. c #747DB9",
"<. c #5B6AC0",
"1. c #5B6BC0",
"2. c #5C6BC0",
"3. c #5D6CC0",
"4. c #5D6CC1",
"5. c #5E6CC1",
"6. c #5E6DC1",
"7. c #6270C2",
"8. c #6372C3",
"9. c #6573C3",
"0. c #6573C4",
"q. c #6775C4",
"w. c #6B77C0",
"e. c #6E7BC7",
"r. c #727FC8",
"t. c #7A82BC",
"y. c #7782C5",
"u. c #7883C6",
"i. c #7380C9",
"p. c #7986CB",
"a. c #7A86CB",
"s. c #7A87CC",
"d. c #7B87CC",
"f. c #7B88CC",
"g. c #7C88CC",
"h. c #868EC2",
"j. c #878EC3",
"k. c #8F96C7",
"l. c #8891CC",
"z. c #8C96CE",
"x. c #9096C7",
"c. c #9097C7",
"v. c #9299C9",
"b. c #9399C9",
"n. c #96A0D6",
"m. c #96A0D7",
"M. c #98A1D3",
"N. c #9AA3D8",
"B. c #A7ACD3",
"V. c #A7ADD3",
"C. c #A3ABD8",
"Z. c #A4ACDC",
"A. c #A6AFDD",
"S. c #A9B1DD",
"D. c #AAB2DE",
"F. c #ADB5DF",
"G. c #B1B6D8",
"H. c #B2B6D8",
"J. c #B6BBDB",
"K. c #BABFE2",
"L. c #BBC1E4",
"P. c #BCC2E5",
"I. c #BDC3E5",
"U. c #BEC3E4",
"Y. c #BDC3E6",
"T. c #BFC5E4",
"R. c #C6C9E2",
"E. c #C6CAE2",
"W. c #C9CCE4",
"Q. c #CBCEE5",
"!. c #CBCFE5",
"~. c #C4C9E8",
"^. c #C5CAE8",
"/. c #C5CAE9",
"(. c #C8CDEA",
"). c #CED1E6",
"_. c #CDD1EA",
"`. c #CED2EA",
"'. c #D1D5EA",
"]. c #D4D8EE",
"[. c #D6D9EF",
"{. c #D9DBED",
"}. c #D7DBF0",
"|. c #DADDF1",
" X c #DBDEF0",
".X c #DADEF1",
"XX c #E0E2F2",
"oX c #E3E5F3",
"OX c #E6E7F2",
"+X c #E6E8F2",
"@X c #ECEDF5",
"#X c #ECEDF8",
"$X c #ECEEF8",
"%X c #EDEFF8",
"&X c #F0F1F7",
"*X c #F0F2F9",
"=X c #F1F2F9",
"-X c #F3F3F9",
";X c #F4F5FB",
":X c #F5F6FB",
">X c #F6F7FB",
",X c #F7F8FC",
"<X c #F8F9FC",
"1X c #FCFDFE",
"2X c #FDFDFE",
"3X c #FDFEFE",
"4X c #FEFEFE",
"5X c #FEFEFF",
"6X c #FEFFFF",
"7X c white",
/* pixels */
"                                                                                                                                ",
"                                                                                                                                ",
"                                                                                                                                ",
"                                                                                                                                ",
"                                                            2.2.2.2.                                                            ",
"                                                        2.2.2.2.2.2.2.                                                          ",
"                                                      2.2.2.2.2.2.2.2.2.2.                                                      ",
"                                                  2.2.2.2.2.2.2.2.2.2.2.2.2.2.                                                  ",
"                                              2.:.5.5.1.5.1.1.:.2.2.2.2.5.:.1.1.5.                                              ",
"                                          2.2.2.1.1.:.:.:.:.5.5.2.2.2.2.:.5.5.:.:.1.5.                                          ",
"                                        2.2.2.2.5.:.1.5.1.5.5.:.2.2.2.2.5.:.5.:.:.5.:.1.                                        ",
"                                    2.2.2.2.2.2.5.1.:.5.1.:.=.5.2.2.2.2.=.5.:.5.1.1.:.5.:.5.                                    ",
"                                2.2.2.2.2.2.2.2.:.5.=.=.=.=.<.1.2.<.=.=.=.2.5.:.5.:.5.:.1.5.:.1.                                ",
"                            2.2.2.2.2.2.2.2.2.2.=.=.q.g.n.D.P.~.~.P.F.m.d.0.=.=.5.1.1.:.1.:.5.1.5.=.                            ",
"                        2.2.2.2.2.2.2.2.2.2.=.5.d.F.|.;X7X7X7X7X7X7X7X7X;X|.F.d.5.=.:.5.5.5.:.:.:.5.5.:.                        ",
"                      2.2.2.2.2.2.2.2.2.<.2.d.P.*X7X7X7X7X7X7X7X7X7X7X7X7X7X7X*XI.a.<.<.:.1.1.5.1.1.:.5.5.                      ",
"                  2.2.2.2.2.2.2.2.2.:.=.9.Z.@X7X7X7X7X7X7X7X7X7X7X7X7X7X7X7X7X7X7X#XZ.8.=.5.5.:.5.5.:.1.5.<.1.                  ",
"              2.2.2.2.2.2.2.2.2.2.2.=.e.~.7X7X7X7X7X7X7X7X7X7X7X7X7X7X7X7X7X7X7X7X7X7X~.e.=.:.5.:.1.:.5.1.<.5.=.`               ",
"              2.2.2.2.2.2.2.2.2.2.=.i.[.7X7X7X7X7X7X7X7X7X7X7X7X7X7X7X7X7X7X7X7X7X7X7X7X[.i.=.:.1.:.1.5.1.5.X.Y m               ",
"              2.2.2.2.2.2.2.2.2.=.e.[.7X7X7X7X7X7X7X7X7X7X7X7X7X7X7X7X7X7X7X7X7X7X7X7X7X7X[.e.=.5.5.1.:.#.! M x x               ",
"              2.2.2.2.2.2.2.2.<.8.~.7X7X7X7X7X7X7X7X7X7X7X7X7X7X7X7X7X7X7X7X7X7X7X7X7X7X7X7X~.8.:.1.&./ B m x m x               ",
"              2.2.2.2.2.2.2.2.<.Z.7X7X7X7X7X7X7X7X7X7X7X7X7X7X7X7X7X7X7X7X7X7X7X7X7X7X7X7X7X7XA.=.' Y x m x m x m               ",
"              2.2.2.2.2.2.2.=.a.#X7X7X7X7X7X7X7X7X7X7X7X7X#X[.(.(.[.#X1X7X7X7X7X7X7X7X7X7X7X7XI.) m x m x m x m x               ",
"              2.2.2.2.2.2.2.5.P.7X7X7X7X7X7X7X7X7X7X7X[.N.r.8.5.1.>.i.N.[.7X7X7X7X7X7X7X7XXXz.R x x m x m x m x m               ",
"              2.2.2.2.2.2.=.d.*X7X7X7X7X7X7X7X7X7X;XD.q.=.:.1.1.1.1.=.=.q.D.;X7X7X7X7X%XC.| v x x m x m x m x m x               ",
"              2.2.2.2.2.2.=.F.7X7X7X7X7X7X7X7X7X;XN.5.<.:.5.5.:.<.5.:.5.5.:.N.>X7X,XK.>.x l x m m x m x m x m x m               ",
"              2.2.2.2.2.2.9.|.7X7X7X7X7X7X7X7X7XD.1.:.1.:.1.5.1.1.5.:.1.5.:.5.D._.y.B v m x m x x m x m x m x m x               ",
"              2.2.2.2.2.=.d.;X7X7X7X7X7X7X7X7X[.q.<.:.5.5.1.:.:.5.=.5.:.:.:.@./ R v x x x m x m m x m x m x m x m               ",
"              2.2.2.2.2.=.n.7X7X7X7X7X7X7X7X1XN.=.5.1.5.:.1.1.5.=.5.5.=.=./ B x x m x m x m x m x m x m x m x m x               ",
"              2.2.2.2.2.=.F.7X7X7X7X7X7X7X7X#Xr.=.:.:.5.:.5.:.5.5.:.=.X.C x x m m x m x m x m x m x m x m x m x m               ",
"              2.2.2.2.2.2.P.7X7X7X7X7X7X7X7X[.8.5.:.1.1.1.1.5.:.=.X.T x m x m x x m x m x m x m x m x m x m x m x               ",
"              2.2.2.2.2.2.~.7X7X7X7X7X7X7X7X(.5.:.5.5.:.5.:.:.@.R B x m x m x m m x m x m x m x m x m x m x m x m               ",
"              2.2.2.2.2.2.~.7X7X7X7X7X7X7X7X(.<.2.2.2.:.5.@.G 5 r v x m x m x m x m x m x m x m x m x m x m x m x               ",
"              2.2.2.2.2.<.P.7X7X7X7X7X7X7X7X[.7.2.2.5.=.P 7 * X # > r v m x m x m x m x m x m x m x m x m x m x m               ",
"              2.2.2.2.2.=.F.7X7X7X7X7X7X7X7X#Xr.2.:.~ q * # # % % # * 1 p x x m x m m x x m x m x m x m x m x m x               ",
"              2.2.2.2.2.=.n.7X7X7X7X7X7X7X7X7XN.[ f > X % % % # # % # % % 2 p x x m x x m x m x m x m x m x m x m               ",
"              2.2.2.2.2.=.f.;X7X7X7X7X7X7X7X7X'.s X * % # % # % * X * X % % = a [ x x x m x m l x m x m x m x m x               ",
"              2.2.2.2.2.1.9.|.7X7X7X7X7X7X7X7X7Xk.* * X % # % # * % * % # # % k.oXM.` z l m x m m x m x m x m x m               ",
"              2.2.2.2.2.:.=.F.7X7X7X7X7X7X7X7X7X-Xt.* X * % % % % X % % % % t.*X7X7X|.l.R l m m x m x m x m x m x               ",
"              2.2.2.2.2.5.=.p.*X7X7X7X7X7X7X7X7X7X*Xc.0 X X # % * * X X 0 c.*X7X7X7X7X7X_.y.K x m x m x m x m x m               ",
"              2.5.:.1.1.5.:.:.T.7X7X7X7X7X7X7X7X7X7X7XQ.t.S 3 * * 3 S t.Q.7X7X7X7X7X7X7X7X>XT.>.B x x m m x m x x               ",
"              2.:.5.5.:.:.=.K } OX7X7X7X7X7X7X7X7X7X7X7X1XOXR.J.J.W.OX7X7X7X7X7X7X7X7X7X7X7X7X{.H i m m x m x m m               ",
"              2.5.:.:.=.~ q - X h.1X7X7X7X7X7X7X7X7X7X7X7X7X7X7X7X7X7X7X7X7X7X7X7X7X7X7X7X7X7Xj.= * 2 z m x m x x               ",
"              2.:.5.| a > # - # 7 H.7X7X7X7X7X7X7X7X7X7X7X7X7X7X7X7X7X7X7X7X7X7X7X7X7X7X7X7XH.< X % % > r l x m m               ",
"              2.@.G < # % # % # # w R.7X7X7X7X7X7X7X7X7X7X7X7X7X7X7X7X7X7X7X7X7X7X7X7X7X7XR.S . * % # % # , r m x               ",
"              L 7 # # % # % # % # X D R.7X7X7X7X7X7X7X7X7X7X7X7X7X7X7X7X7X7X7X7X7X7X7X7XR.D X # * # % # % # * , p               ",
"              % # % % # % # % # % # # w H.1X7X7X7X7X7X7X7X7X7X7X7X7X7X7X7X7X7X7X7X7X1XH.w X % % # % # % # % % % *               ",
"                  % # % # % # % # % # # 3 h.OX7X7X7X7X7X7X7X7X7X7X7X7X7X7X7X7X7X7XOXh.< X % % # % # % # % # %                   ",
"                      % # # % # # % # % X # F V.@X7X7X7X7X7X7X7X7X7X7X7X7X7X7X@XB.F % X % # % # # % # % %                       ",
"                          % # % % # % # % * X * I v.).&X7X7X7X7X7X7X7X7X&X).v.I * X = % # % # % % # %                           ",
"                            % # # % # % # % # % X X 0 F ,.v.B.G.G.B.v.,.U 0 X X % % % # % # % # # %                             ",
"                                % # % # % # % # * % = X X X # % % # X X X X % # % # # % # % # %                                 ",
"                                    % % % # % # % # % # % # % # # % # % # % # % # % # % % #                                     ",
"                                        # % # % # % # % # % # % % # % # % # % # % # % #                                         ",
"                                          % % # % # % # % # % # # % # % # % # % # % #                                           ",
"                                              % # % # % # % # % % # % # % # % # %                                               ",
"                                                  % % # % # % # # % % # % % #                                                   ",
"                                                      % # % # % % # # % #                                                       ",
"                                                          % % # # % #                                                           ",
"                                                            # % % #                                                             ",
"                                                                                                                                ",
"                                                                                                                                ",
"                                                                                                                                ",
"                                                                                                                                "
};
