/* XPM */
static char *result[] = {
/* columns rows colors chars-per-pixel */
"64 64 227 2 ",
"   c #030502",
".  c #0A0F0B",
"X  c #080A08",
"o  c #0D120E",
"O  c #11130F",
"+  c #0E1411",
"@  c #0F151D",
"#  c #121612",
"$  c #151915",
"%  c #1A1A16",
"&  c #111718",
"*  c #161B1B",
"=  c #1A1D1B",
"-  c #191711",
";  c #241D1B",
":  c #2C1E1A",
">  c #1D211E",
",  c #23211D",
"<  c #2C241D",
"1  c #2B2216",
"2  c #36271D",
"3  c #171D22",
"4  c #1A1E22",
"5  c #1C1D29",
"6  c #1B1F30",
"7  c #1D2223",
"8  c #1E2328",
"9  c #1E282A",
"0  c #1D2E32",
"q  c #222524",
"w  c #2B2623",
"e  c #252827",
"r  c #2B2926",
"t  c #23252A",
"y  c #25292C",
"u  c #2B2D2B",
"i  c #282728",
"p  c #322E2A",
"a  c #372B25",
"s  c #2D302F",
"d  c #33312E",
"f  c #3C332C",
"g  c #262B32",
"h  c #2B2D34",
"j  c #2E2E39",
"k  c #242635",
"l  c #2D3234",
"z  c #2F3239",
"x  c #333433",
"c  c #3A3633",
"v  c #363837",
"b  c #32333C",
"n  c #363A3C",
"m  c #3C3C3B",
"M  c #3A3834",
"N  c #431810",
"B  c #41342C",
"V  c #433633",
"C  c #463C36",
"Z  c #543D36",
"A  c #56312F",
"S  c #46403D",
"D  c #59463A",
"F  c #624639",
"G  c #714B38",
"H  c #7A543D",
"J  c #664B37",
"K  c #333441",
"L  c #363A41",
"P  c #3A3B42",
"I  c #3C3D49",
"U  c #3D4143",
"Y  c #424343",
"T  c #4B4C4C",
"R  c #494644",
"E  c #584743",
"W  c #545453",
"Q  c #684C44",
"!  c #6B5549",
"~  c #795947",
"^  c #6F5A55",
"/  c #7D6153",
"(  c #7A635E",
")  c #6C6E6E",
"_  c #7C6562",
"`  c #8A3539",
"'  c #86553F",
"]  c #9E4D4C",
"[  c #885C44",
"{  c #915849",
"}  c #8A4940",
"|  c #A95D47",
" . c #8E624A",
".. c #92644A",
"X. c #99684D",
"o. c #84685B",
"O. c #996E57",
"+. c #9D755B",
"@. c #90725C",
"#. c #A2644A",
"$. c #A16D56",
"%. c #AB7A5D",
"&. c #A67458",
"*. c #B27F5F",
"=. c #B16D53",
"-. c #866B64",
";. c #9D7B69",
":. c #997765",
">. c #90756E",
",. c #AC7C63",
"<. c #A47C69",
"1. c #B67664",
"2. c #BD6B63",
"3. c #C77056",
"4. c #C57469",
"5. c #CA6F70",
"6. c #9B837E",
"7. c #AD816A",
"8. c #AA8369",
"9. c #BB8C6C",
"0. c #B88669",
"q. c #BE906F",
"w. c #A88677",
"e. c #B38B71",
"r. c #BB8C72",
"t. c #B48776",
"y. c #BB947B",
"u. c #BC9275",
"i. c #C38A6C",
"p. c #C78969",
"a. c #C8926A",
"s. c #CB8B78",
"d. c #C39373",
"f. c #CA9474",
"g. c #C4967A",
"h. c #CA947C",
"j. c #C59A7C",
"k. c #CA9C7C",
"l. c #C79A76",
"z. c #D29B7C",
"x. c #D5987B",
"c. c #D49372",
"v. c #E9977C",
"b. c #DBA263",
"n. c #D6A07F",
"m. c #E3AC7A",
"M. c #A88A85",
"N. c #BB9687",
"B. c #BD9D94",
"V. c #DB8687",
"C. c #C39685",
"Z. c #C49C84",
"A. c #CB9C82",
"S. c #CA9887",
"D. c #D79B83",
"F. c #C79E91",
"G. c #E89782",
"H. c #E88993",
"J. c #CCA183",
"K. c #CDA48A",
"L. c #C7A288",
"P. c #D2A485",
"I. c #DAA384",
"U. c #D3A68C",
"Y. c #D5A98D",
"T. c #DBAC8D",
"R. c #DAA788",
"E. c #CBA594",
"W. c #D5A694",
"Q. c #D4AB93",
"!. c #DAAC92",
"~. c #DCAD9B",
"^. c #DEB194",
"/. c #DDB39A",
"(. c #D9B39A",
"). c #E0AA8E",
"_. c #E5B38E",
"`. c #E2AE93",
"'. c #E4AE9A",
"]. c #EAAB97",
"[. c #E3B395",
"{. c #EAB695",
"}. c #E4B49B",
"|. c #EBB59D",
" X c #E5B99B",
".X c #EABC9D",
"XX c #EABA97",
"oX c #F4B59C",
"OX c #F2BC9F",
"+X c #F2B397",
"@X c #F5AF93",
"#X c #DDB6A4",
"$X c #DCBCAA",
"%X c #E3B6A1",
"&X c #E5BCA4",
"*X c #EBBCA4",
"=X c #ECBFAB",
"-X c #E7BAA6",
";X c #F3BDA3",
":X c #F2BEA9",
">X c #FCB8A6",
",X c #EDC1A3",
"<X c #EDC4AB",
"1X c #EDC9AF",
"2X c #E5C1AB",
"3X c #F2C4A5",
"4X c #F2C4AA",
"5X c #F4CAAC",
"6X c #FACAAC",
"7X c #F8C6AA",
"8X c #EBC5B2",
"9X c #EECAB2",
"0X c #E7C7B8",
"qX c #F9C7B0",
"wX c #F4CCB3",
"eX c #FBCCB4",
"rX c #F3CEBA",
"tX c #FCCEB9",
"yX c #F3C4B2",
"uX c #FCD1B5",
"iX c #F4D1BB",
"pX c #FDD2BB",
"aX c #EFD0BD",
"sX c #FBD4C1",
"dX c #FEDCCB",
"fX c #F8D7C4",
"gX c None",
/* pixels */
"gXgXgXgXgXgXgXgXgXgXgXgXgXgXgXgXgXgXgXgXgXgXgXgXgXgXgXgXgXgXgXgXgXgXgXgXgXgXgXgXgXgXgXgXgXgXgXgXgXgXgXgXgXgXgXgXgXgXgXgXgXgXgXgX",
"gXgXgXgXgXgXgXgXgXgXgXgXgXgXgXgXgXgXgXgXgXgXgXgXgXgXgXgXgXgXgXgXgXgXgXgXgXgXgXgXgXgXgXgXgXgXgXgXgXgXgXgXgXgXgXgXgXgXgXgXgXgXgXgX",
"gXgXgXgXgXgXgXgXgXgXgXgXgXgXgXgXgXgXgXgXgXgXgXgXgXgXgXgXgXgXgXgXgXgXgXgXgXgXgXgXgXgXgXgXgXgXgXgXgXgXgXgXgXgXgXgXgXgXgXgXgXgXgXgX",
"gXgXgXgXgXgXgXgXgXgXgXgXgXgXgXgXgXgXgXgXgXgXgXgXgXgXgXgXgXgXgXgXgXgXgXgXgXgXgXgXgXgXgXgXgXgXgXgXgXgXgXgXgXgXgXgXgXgXgXgXgXgXgXgX",
"gXgXgXgXgXgXgXgXgXgXgXgXgXgXgXgXgXgXgXgXgXgXgXgXgXgXgXgXgXgXgXgXgXgXgXgXgXgXgXgXgXgXgXgXgXgXgXgXgXgXgXgXgXgXgXgXgXgXgXgXgXgXgXgX",
"gXgXgXgXgXgXgXgXgXgXgXgXgXgXgXgXgXgXgXgXgXgXgXgXgXgXgXgXu v Y W T ) ) T m T Y gXgXgXgXgXgXgXgXgXgXgXgXgXgXgXgXgXgXgXgXgXgXgXgXgX",
"gXgXgXgXgXgXgXgXgXgXgXgXgXgXgXgXgXgXgXgXgXgXgXgXgXgXgXY v q x q = u u l U m q s S R Y gXgXgXgXgXgXgXgXgXgXgXgXgXgXgXgXgXgXgXgXgX",
"gXgXgXgXgXgXgXgXgXgXgXgXgXgXgXgXgXgXgXgXgXgXgXgXm R ; x m * l > e r x s e v m v v M U W m gXgXgXgXgXgXgXgXgXgXgXgXgXgXgXgXgXgXgX",
"gXgXgXgXgXgXgXgXgXgXgXgXgXgXgXgXgXgXgXgXgXgXS T x < M x v s e s v M x e , > r d M x x m r m gXgXgXgXgXgXgXgXgXgXgXgXgXgXgXgXgXgX",
"gXgXgXgXgXgXgXgXgXgXgXgXgXgXgXgXgXgXgXa f M x Y u u v S v s v l u e u q > > > > > r u d r r Y gXgXgXgXgXgXgXgXgXgXgXgXgXgXgXgXgX",
"gXgXgXgXgXgXgXgXgXgXgXgXgXgXgXgXgX< < M d , e v 9 e e u , > > > u s > % > $ $ > $ > > > , 1 s S gXgXgXgXgXgXgXgXgXgXgXgXgXgXgXgX",
"gXgXgXgXgXgXgXgXgXgXgXgXgXgXgXgX1 d d w % % q s e > > + $ > # + + = = = + > + # $ > , > $ , > < x gXgXgXgXgXgXgXgXgXgXgXgXgXgXgX",
"gXgXgXgXgXgXgXgXgXgXgXgXgXgXgX< d M , u u , > , e > > + + # # o . + > > # > $ + > > > > > $ % , - w gXgXgXgXgXgXgXgXgXgXgXgXgXgX",
"gXgXgXgXgXgXgXgXgXgXgXgXgXgX< p p u M M < < > > > > > > > # + > > * > e > > > > > , e > > > - $ = . , gXgXgXgXgXgXgXgXgXgXgXgXgX",
"gXgXgXgXgXgXgXgXgXgXgXgXgX1 < r r d M p s < , > > + . > s > $ > s u 9 s > > 7 > + > e > > $ $ $ $ %   % gXgXgXgXgXgXgXgXgXgXgXgX",
"gXgXgXgXgXgXgXgXgXgXgXgXgXw p r d M M x d x , > $ + # > e 9 > > > 7 > > > > q > + $ e e # + o $ % O -   gXgXgXgXgXgXgXgXgXgXgXgX",
"gXgXgXgXgXgXgXgXgXgXgXgXp p p x p w w x u x > = > > e e 7 q e u e 9 > > > $ > > > # > > > + o o % % o . % gXgXgXgXgXgXgXgXgXgXgX",
"gXgXgXgXgXgXgXgXgXgXgXw w d c r d = q u r e q $ > 7 n s e e e > e s > > e + $ > + o $ $ $ > o o # = # o O gXgXgXgXgXgXgXgXgXgXgX",
"gXgXgXgXgXgXgXgXgXgXgXw r c p u u q q x q e s s 7 w x n v s s > 9 v u > e = + $ + + $ > > > o o # o % - X gXgXgXgXgXgXgXgXgXgXgX",
"gXgXgXgXgXgXgXgXgXgXgXp x M u p u q x e > e u l e w c Y U U U e e s s 9 > + + + # > 9 e e $ $ o o . $ % . gXgXgXgXgXgXgXgXgXgXgX",
"gXgXgXgXgXgXgXgXgXgXgXr d m d x , > x < s l x l u l d x U m n l > v v v u > > > > > e u v > # $ o + o $ - gXgXgXgXgXgXgXgXgXgXgX",
"gXgXgXgXgXgXgXgXgXgXgXr r d u s e > e u s s u q u l d p u v v n e x l s u l s s > > > > q > + $ + + # $ % gXgXgXgXgXgXgXgXgXgXgX",
"gXgXgXgXgXgXgXgXgXgXgXr w d s s e > u M a d s e > e r p , > p u > = s > > 9 > s e > o o # $ o o o O % % - gXgXgXgXgXgXgXgXgXgXgX",
"gXgXgXgXgXgXgXgXgXgXgXgX% d d l e > r V ! Z B c e $ + q e % # ; S u > + o > # o > # o . o # o o o # = $ # gXgXgXgXgXgXgXgXgXgXgX",
"gXgXgXgXgXgXgXgXgXgXgXgX: w x u e % , ~ g.A.A.U.W.w.-.E h 3 o + e B ; - X   X X O o . . . o o o o # ; o   gXgXgXgXgXgXgXgXgXgXgX",
"gXgXgXgXgXgXgXgXgXgXgXgXgX, w i > q f 0.).W.E.#X0XfXdXsXF.-.V w % D >.N.<.^ f , O . . . # + X . o $ * % gXgXgXgXgXgXgXgXgXgXgXgX",
"gXgXgXgXgXgXgXgXgXgXgXgXgXE p p = , < G 7.@.>.B.M.-.( >.N.W.W.C.j.(.2X8X8X$XN.( C p < , < a ; X O % % gXgXgXgXgXgXgXgXgXgXgXgXgX",
"gXgXgXgXgXgXgXgXgXgXgXgXgX1.' x , a +.9.A.Z.N.y.<.:.o./ ~ / <.W.(.^.!.S.w./ E Q ! ! Q Q D F G - o   : gXgXgXgXgXgXgXgXgXgXgXgXgX",
"gXgXgXgXgXgXgXgXgXgXgXgXgXs.3.! u o.{._.I.b.b.b.b.m.m.c.a.i.r.d.S.D.r.7.,.%.a.].}.z.r.t.<.O.O.f . D gXgXgXgXgXgXgXgXgXgXgXgXgXgX",
"gXgXgXgXgXgXgXgXgXgXgXgXgXgX@Xt.c ;.{.{._.p.=.X.+.D 2 ! &.p.x.!.!.S.g.9.0.p.+.~ ~ ;.%.,.,.8.%.B a 2.gXgXgXgXgXgXgXgXgXgXgXgXgXgX",
"gXgXgXgXgXgXgXgXgXgXgXgXgXgXoX3.V ;..X,X5X,X.X/.=XM.^ M.9.f.XXwXrX=XD.i.i.,.6.c E M.{ X.7.9.7.B F s.gXgXgXgXgXgXgXgXgXgXgXgXgXgX",
"gXgXgXgXgXgXgXgXgXgXgXgXgXgXv.G._ ;.3X7XuXuXuX5X:X;XoXT.`.<XtXpXpX;Xx.p.P.~.'.}.T.x.l.d.a.a.e.C } A.gXgXgXgXgXgXgXgXgXgXgXgXgXgX",
"gXgXgXgXgXgXgXgXgXgXgXgXgXgXG.>Xw.:.3XwXpXpXpXpXwX4X=X4XeXsXuXsXsX*Xx.a.).*X%X'.`.).R.J.z.l.r.S { x.gXgXgXgXgXgXgXgXgXgXgXgXgXgX",
"gXgXgXgXgXgXgXgXgXgXgXgXgXgXoXoXC.;.*X4XeXuXuXtXeXeXeXtXtXsXpXsXtX;XD.f.x.|.,X*X*X%X}.T.U.A.t.Z | s.gXgXgXgXgXgXgXgXgXgXgXgXgXgX",
"gXgXgXgXgXgXgXgXgXgXgXgXgXgX;XoX%Xy./.4XeXuXeXuXtXeXtXtXtXqXeXtXtX>XD.p.c.%X:X:X:X*X}.T.P.A.8.[ 0.gXgXgXgXgXgXgXgXgXgXgXgXgXgXgX",
"gXgXgXgXgXgXgXgXgXgXgXgXgXgXgX7XqX~.Q.<XwXeXtXtXtXtXtXqX;XqXtXdXdXeX!.s.i.}.:X:X:X%X'.W.S.Z.:.&.gXgXgXgXgXgXgXgXgXgXgXgXgXgXgXgX",
"gXgXgXgXgXgXgXgXgXgXgXgXgXgXgXgXgX0XQ.2XwXwXeXtXtXtXqX:X*XqX=X%X=X%Xh.h.h.D.:X:X*X|.!.W.k.y.M.h.gXgXgXgXgXgXgXgXgXgXgXgXgXgXgXgX",
"gXgXgXgXgXgXgXgXgXgXgXgXgXgXgXgXgXgX0X X4XwXeXeXeXeXqXqX:Xx.1.1.1.1.$.$.i.!.'.-X%X~.Q.U.y.N.gXgXgXgXgXgXgXgXgXgXgXgXgXgXgXgXgXgX",
"gXgXgXgXgXgXgXgXgXgXgXgXgXgXgXgXgXgXgX}.<X5X5XeXeXeXtXtXuXyX4XwX&X-XP.d.P.T.'.}.^.~.Q.K.y.E.gXgXgXgXgXgXgXgXgXgXgXgXgXgXgXgXgXgX",
"gXgXgXgXgXgXgXgXgXgXgXgXgXgXgXgXgXgXgX&X,X4X4X6XqXeXpXpXiXpXeXoXXX|.I.P.!.!.^.`.Y.Y.Q.K.u.W.gXgXgXgXgXgXgXgXgXgXgXgXgXgXgXgXgXgX",
"gXgXgXgXgXgXgXgXgXgXgXgXgXgXgXgXgXgXgX8X X,X,X5X6XwX,Xd.h.s.5.4.5.2.=.] ,.g.(.!.Y.Y.U.L.y.gXgXgXgXgXgXgXgXgXgXgXgXgXgXgXgXgXgXgX",
"gXgXgXgXgXgXgXgXgXgXgXgXgXgXgXgXgXgXgXgX^..X,X3X3X,Xn.*.5.5.V.H.H.V.5.] ' &.Y.T.Y.P.K.y.Z.gXgXgXgXgXgXgXgXgXgXgXgXgXgXgXgXgXgXgX",
"gXgXgXgXgXgXgXgXgXgXgXgXgXgXgXgXgXgXgXgX$X_. X,X3X,X3XuX7X|.].D.V.s.s.0.k._.T.T.P.k.j.y.gXgXgXgXgXgXgXgXgXgXgXgXgXgXgXgXgXgXgXgX",
"gXgXgXgXgXgXgXgXgXgXgXgXgXgXgXgXgXgXgXgX2XK.^.XX.X3X3X5X5XOX[.x.h.A.D.I.^.^.T.P.J.j.9.N.gXgXgXgXgXgXgXgXgXgXgXgXgXgXgXgXgXgXgXgX",
"gXgXgXgXgXgXgXgXgXgXgXgXgXgXgXgXgXgXgXgX$XP.J.T.XX,X3X6X7X7X:X:X*X*X}.}.[.^.Y.P.k.9.w.gXgXgXgXgXgXgXgXgXgXgXgXgXgXgXgXgXgXgXgXgX",
"gXgXgXgXgXgXgXgXgXgXgXgXgXgXgXgXgXgXgXgX2X_.R.u.k. X3X5X6XeXqX7X4X%X}.}.^.!.Y.k.e.O.e.gXgXgXgXgXgXgXgXgXgXgXgXgXgXgXgXgXgXgXgXgX",
"gXgXgXgXgXgXgXgXgXgXgXgXgXgXgXgXgXgXgXgX$XXXXXn.%.%.h.[.;X3X3X-X-X%X^.!.Y.P.g.+. .$.y.gXgXgXgXgXgXgXgXgXgXgXgXgXgXgXgXgXgXgXgXgX",
"gXgXgXgXgXgXgXgXgXgXgXgXgXgXgXgXgXgXgXz 8.6X,X[.f.&. .X.7.A.Y.U.W.P.A.g.r.+.[ ' &.9.L.gXgXgXgXgXgXgXgXgXgXgXgXgXgXgXgXgXgXgXgXgX",
"gXgXgXgXgXgXgXgXgXgXgXgXgXgXgXgXgXgXg X @.6X3X,X_.l.0.X.' ' [  . . . .[ H H ..%.d.f.e.gXgXgXgXgXgXgXgXgXgXgXgXgXgXgXgXgXgXgXgXgX",
"gXgXgXgXgXgXgXgXgXgXgXgXgXgXgXgXgXk i X @.6X3X5X,XT.R.R.d.,.O.X... . .X.&.&.0.a.l.l.8.Y gXgXgXgXgXgXgXgXgXgXgXgXgXgXgXgXgXgXgXgX",
"gXgXgXgXgXgXgXgXgXgXgXgXgXgXgXgX@ h ,   +.6X5X6X7X[.T.,X3X{.R.z.l.a.d.a.9.0.9.l.l.l.9.w U gXgXgXgXgXgXgXgXgXgXgXgXgXgXgXgXgXgXgX",
"gXgXgXgXgXgXgXgXgXgXgXgXgXgXgXgXh h : N r.3X5X6X5X.X^. X5XeX4X%X XT.n.a.9.0.q.k.J.k.u.C @ T gXgXgXgXgXgXgXgXgXgXgXgXgXgXgXgXgXgX",
"gXgXgXgXgXgXgXgXgXgXgXgXgXgXgXgXh l , F T.,X5XuX6X,X^.!./.,XwX8X&XP.j.d.q.9.u.K.P.k.l.D 7 * L k gXgXgXgXgXgXgXgXgXgXgXgXgXgXgXgX",
"gXgXgXgXgXgXgXgXgXgXgXgXgXgXgXn z l , +.3X3X5XwXwX3X X^.!.!.^.!.A.d.d.d.q.q.k.P.P.L.l.J @ 9 3 * 4 h g 5 gXgXgXgXgXgXgXgXgXgXgXgX",
"gXgXgXgXgXgXgXgXgXgXgXgXgX5 5 7 n 0 < l.5X5XwXwXwX5X,X,X&X!.P.h.j.j.g.g.u.u.J.Y.K.J.k.H * 7 * 7 q t 5 4 t h gXgXgXgXgXgXgXgXgXgX",
"gXgXgXgXgXgXgXgXgX6 j h k t 7 8 l s a k.5X5XwX5X5X5X3X3X2X&X/.!.U.K.S.j.l.k.Y.Q.K.J.l.H * 7 @ * * 4 4 t y t 5 h t 5 gXgXgXgXgXgX",
"gXgXgXgXgXgXgXk K K I I b t 4 * h g f g.5X<X5X5X5X5X5X<X1X1X2X#X~.Q.K.j.j.K.Y.Y.K.j.q.H * 7 & & & * = 4 = 5 t i 4 4 t j 5 gXgXgX",
"gXgXk K I K h h L L b h h k 5 * g g p 8.2X9X<X<X9X5X1X1X,X<X2X&X#XQ.K.j.J.Y.Q.Y.J.l.e.! * * & & * 7 5 4 5 4 4 4 7 t t t 5 q h j ",
"L j h h h b b b j j j h h h t * 8 l 9 o.Y.9X1X1X1X9X5X<X&X&X#X/.Q.A.j.A.K.Q.Q.K.L.y.e.D 7 & & & * 8 t 5 q 7 8 4 4 7 7 4 7 t i t ",
"j j b b b b b b j j j j l h y * 3 l t C Z.$XaX1X1X9X9X1X2X&X&X^.U.J.J.U.Q.(.Q.L.L.Z.e.c 3 @ + & 7 8 t t t t 7 5 t i t 8 t 7 7 t ",
"j j j b b b b b j K z z z z g 7 3 9 z 7 -.#X8XaX9XwXrX9X2X,X(./.Y.U.K.Q.(.(.Y.K.W.Q.;.k 7 + @ * 7 8 u y y h t t t t t t t t t t ",
"h h h h h b b b z z z g L z g y 7 7 g g p Z.8XiXiXiXrXiX1X,X/./.T.Y.Y.(.&X(.!.(.%X|.Q 8 @ & & 7 8 t g h t y h y t t 8 t i t i i ",
"h j h h h h h h j z z j L L n l y 9 g z 7 A }.aXfXdXfXpXrX2X&X&X/./.&X8X8X&X&X=XrXs.u 9 & & * 7 9 y z n t t y y h i 7 i k i k y ",
"j h h j h j h h g j z j z L L n z g l l g & ] <XfXdXdXdXpXrXaX9X9XrXfXfXiX8X9XiX>X` 0 7 @ > 7 9 y l z L h q k y h 5 t h y h i h "
};
