/* XPM */
static char *_10413bcfb9541e1811a694f514152a7j20E1DIVvtg7ZAWQ[] = {
/* columns rows colors chars-per-pixel */
"64 64 183 2 ",
"   c None",
".  c #5E360A",
"X  c #5F380C",
"o  c #613A0E",
"O  c #643D13",
"+  c #674017",
"@  c #66411B",
"#  c #6A431C",
"$  c #6D481F",
"%  c #694217",
"&  c #664625",
"*  c #6D4622",
"=  c #6F4823",
"-  c #674A2B",
";  c #684B2F",
":  c #714B25",
">  c #734B2B",
",  c #7A4A28",
"<  c #76522A",
"1  c #79552D",
"2  c #684D33",
"3  c #674D33",
"4  c #764F32",
"5  c #784F32",
"6  c #6B523B",
"7  c #6B513A",
"8  c #765133",
"9  c #795136",
"0  c #7D5A33",
"q  c #71543C",
"w  c #7B5339",
"e  c #73583D",
"r  c #6B5542",
"t  c #6C5847",
"y  c #6C5A4C",
"u  c #6D5E53",
"i  c #6E625B",
"p  c #73675D",
"a  c #6F6663",
"s  c #706663",
"d  c #706866",
"f  c #716A6B",
"g  c #796D66",
"h  c #726E75",
"j  c #737077",
"k  c #73737C",
"l  c #7D7777",
"z  c #864C29",
"x  c #87522F",
"c  c #8C5333",
"v  c #815E37",
"b  c #8A5735",
"n  c #955536",
"m  c #99583A",
"M  c #A25A3F",
"N  c #85633C",
"B  c #8C633E",
"V  c #A65C41",
"C  c #AC5E44",
"Z  c #8A6641",
"A  c #8C6B45",
"S  c #8D6D49",
"D  c #826545",
"F  c #92724D",
"G  c #957653",
"H  c #977854",
"J  c #987955",
"K  c #9C7E5A",
"L  c #90785D",
"P  c #B26249",
"I  c #B9654E",
"U  c #BD6751",
"Y  c #987E61",
"T  c #897A6E",
"R  c #CB6E5C",
"E  c #C36A57",
"W  c #CF705F",
"Q  c #DE786A",
"!  c #D77465",
"~  c #E37A6F",
"^  c #EB7E74",
"/  c #E67C71",
"(  c #9F805D",
")  c #A0815E",
"_  c #9D8262",
"`  c #A48663",
"'  c #A68866",
"]  c #A78A68",
"[  c #AA8D6B",
"{  c #AC906E",
"}  c #A58E75",
"|  c #AF9271",
" . c #A79178",
".. c #B19675",
"X. c #B69A7A",
"o. c #B99E7E",
"O. c #B59878",
"+. c #ED8076",
"@. c #F18179",
"#. c #747683",
"$. c #757887",
"%. c #767B8B",
"&. c #777E92",
"*. c #787F95",
"=. c #788097",
"-. c #79839C",
";. c #7A87A4",
":. c #7A88A6",
">. c #7C8AA8",
",. c #8E8D94",
"<. c #93959F",
"1. c #B19D87",
"2. c #BCA283",
"3. c #BEAE9C",
"4. c #8B97B1",
"5. c #989BA6",
"6. c #9CA6BC",
"7. c #ACAFBA",
"8. c #B0ACAC",
"9. c #C1A788",
"0. c #C4AA8C",
"q. c #C0A685",
"w. c #CAAF92",
"e. c #C7AE90",
"r. c #CAB294",
"t. c #CEB699",
"y. c #CFB89A",
"u. c #D1BA9D",
"i. c #D4BEA1",
"p. c #C3BDB8",
"a. c #D7C1A5",
"s. c #D9C2A6",
"d. c #DBC5AA",
"f. c #DEC9AE",
"g. c #DFC9AE",
"h. c #E2CEB3",
"j. c #E2CDB2",
"k. c #EBCBB3",
"l. c #FCC9B6",
"z. c #FDCDBA",
"x. c #F5CAB5",
"c. c #E5D0B6",
"v. c #EBD7BD",
"b. c #E9D5BB",
"n. c #EAD6BC",
"m. c #FDD2BE",
"M. c #E0C2A8",
"N. c #A1ABC1",
"B. c #B5BAC7",
"V. c #B9C0CF",
"C. c #BFC5D4",
"Z. c #CDD1DC",
"A. c #D3D4D7",
"S. c #D3D1D2",
"D. c #EEDBC2",
"F. c #FED7C3",
"G. c #F1DDC5",
"H. c #FDDAC5",
"J. c #FEDEC9",
"K. c #E0D8D0",
"L. c #F7E5CD",
"P. c #F5E2CA",
"I. c #FBE5CE",
"U. c #F3E0C7",
"Y. c #FDE7D0",
"T. c #FBE9D1",
"R. c #FFEED7",
"E. c #FFEED6",
"W. c #FEEDD5",
"Q. c #FFEDD6",
"!. c #FFEFD8",
"~. c #FFEED8",
"^. c #FFEFD8",
"/. c #FFF0D9",
"(. c #FFF1DA",
"). c #FFF0DA",
"_. c #FFF2DB",
"`. c #FFF1DA",
"'. c #E9E4DE",
"]. c #D1D6E0",
"[. c #DEE2EA",
"{. c #F0EDE8",
"}. c white",
/* pixels */
"                                                          O O O O O O O # O O O                                                 ",
"                                                    O O # : : 4 9 9 9 9 9 5 4 * * O O                                           ",
"                                                O O : 4 9 w w w w w w w w w 9 w 9 4 = # O                                       ",
"                                            O O : 5 w w w w w w w w w w w w w w w b r 9 > # O                                   ",
"                                          O * 5 w w w w w w w w w w w w w w w w w w w w w 9 * O                                 ",
"                                        O > 9 w w w w w w w w w w w w w w w w w w w w w w w w 4 @                               ",
"                                      O 4 9 w w w w w w w w w w w w w w w w w w w w w w w w w w > #                             ",
"                                    @ 4 w 9 w w w w w w w w w w w w w w w w w w w w w w w w w w w 9 #                           ",
"                                  O > w w w w w w w w w w w w w w w w w w w w w w w w w w w w w w w 4 O                         ",
"                                O = w w w w w w w w w w w w w w w 5 & 5 w w w w w w w w w w w w w w 9 4 O                       ",
"                                # 9 w w w w w w w w w w w w w w 5 * 0 * 9 9 w w w w w w w w w w w w w w = O                     ",
"                              O 4 w w w w w w w w w w w w w 9 9 * G b.' # 9 w w w w w w w w w w w w w w 9 O                     ",
"                              * w w w w w w w w w w w w 9 w 9 # G G./.L.' # 4 w w w w w w w w w w w w w w = O                   ",
"                            O > w w w w w w w w w w w w 9 > * ' G.~.E.~.Y.O.= = w w w w w w w w w w w w w 5 O                   ",
"                            # 9 w w w w w w w w w w w 9 * 1 2.T.~.E.~.~.~.E.r.0 * 5 w w w w w w w w w w 9 w *                   ",
"                            = w w w w w w w w w w 9 : * F j./.~.~.~.E.E.~.E./.b.( = = 9 w w w w w w w w w w : O                 ",
"                          O 4 w 9 w w w w w w 9 ; $ v 0.Y./.E.E.~.E.~.E.E.~.~.~.T.t.A * : 9 w 9 w w w w w w 9 O                 ",
"                          @ 5 w w w w w w 9 : * N 2.G./.~.~.~.E.E.~.E.E.~.E.E.~.~.~.P.e.A * = 1 w w w w w w 9 @                 ",
"                          # 5 w w w 9 > $ : G e.P._./.~.E.~.E.~.~.E.E.~.E.~.~.E.~.~.~._.Y.t.K < * : 9 w 9 w 9 *                 ",
"                          # 9 w 5 * : D ..f.k.1.' | h./.~.E.~.E.E.~.~.E.~.E.E.~.~.~.T.w.] [ r.g.o.S > * 4 w w *                 ",
"                          # w w > 0 d.L./.G.F ) 2.[ Z h./.E.E.~.~.~.E.~.E.~.E.E.~.E.| S 1.o.A o.~.Y.c.S * w 9 *                 ",
"                          * 9 w * [ /.~.E.P.d.E./.~.d.v.~.E.~.E.E.E.~.E.~.E.E.~.~.~.g.G._._.n.s.E.~._.0.* w 9 *                 ",
"                          # 9 9 = u./.~.~.~./.E.E.~./.~.~.E.E.~.E.~.E.~.E.~.E.~.~.E././.~.E.~./.~.~.~.c.< 9 9 *                 ",
"                          O 5 4 1 b./.E.E.E.E.E.E.~.E.~.E.~.~.E.E.E.~.E.~.E.~.E.E.~.~.~.E.E.~.~.~.E.~.L.Z > 9 *                 ",
"                          O $ $ N L.~.~.E.E.~.E.~.~.~.E.~.E.E.~.~.E.E.~.E.~.W.~.~.E.~.~.E.~.^.W.E.~.E./.( @ : +                 ",
"                        O G i.o.J E.~.E.~.E./././././.~.E.~.~.E.E.~.~.E.~.E.E.~.E.~.~.~././.).^.~.E.~./.| ( c.2.0               ",
"                        S P._.9.` ~.E.~.E.D.0.g.X...c.~.~.E.E.~.~.E.~.E.E.~.E.~.E.~.T.e.] e.a.r.E.E.E./.2.[ /./.t.=             ",
"                      + r._._.2.] ~.E.E./.G.J : # } _ v.~.E.~.E.E.~.E.~.~.E.~.E.~.~.2.O S } 0 e./.~.!./.9.` /.~.T.F             ",
"                      : h./._.2.] /.~.E.~./.u.O $ 3.A r./.~.~.E.E.~.~.~.E.E.E.~.E.T.A X Y 1.A Y.E.E.~./.9.` /.E./.[             ",
"                      = f./._.2.` /.E.~.~./.g.$ o O # a./.E.E.~.~.~.h.P.~.~.~.E.E.E.K X O o K E.~.E.~./.2.] /.E./.'             ",
"                      O o././.y.J W.E.E.~.W.I.X.< < ..T.~.E.~.E.E.W.K u.~.~.E.~.E./.h.A : A j.E.E.E.~./.| O./.E.P.N             ",
"                        v b._.g.S L.~.E.I.m.z.m.k.v.W.E.E.~.E.~.~.T.K i./.E.~.E.~.~./.L.k.x.z.m.H.E.~.E.( e././.2.#             ",
"                        o S h.G.S h.~.J.z.l.l.l.z.J.~.E.E.~.~.~.~.~.c.P.!.E.E.E.~.~.E.I.z.l.l.l.l.F.W.G.S g.Y.9.:               ",
"                            < J < 0.~.z.l.l.l.l.l.z.Y.E.~./././././././././././.~.~.W.m.l.l.l.l.l.z.Y.f.< K A #                 ",
"                                . J I.z.l.l.l.l.l.l.I.~.c.[ 9.u.g.c.b.b.j.d.r...2.W.Y.z.l.l.l.l.l.l.I...o                       ",
"                                  : s.z.l.l.l.l.l.l.I./.d.: n b b b b b b b n z J E.W.z.l.l.l.l.l.z.k.v                         ",
"                                    ( m.l.l.l.l.l.m.E./.L.A E @./ ~ ~ ~ ~ ^ ^ n 9._.~.H.l.l.l.l.l.z.O.O                         ",
"                                    $ r.F.l.l.l.m.Y.E.E._.2.c ! @.@.+.@.@.+.P A G.~.~.W.F.l.l.l.F.M.1                           ",
"                      o + +           0 h.Y.J.I.W.~.~.E.^.T...x C W ! ! E n Z g.~.~.Q.Q.Q.Y.J.Y.G.S                             ",
"                    : { u.0.A O         Z v.~.~.E.E.~.E.^.^.^.a.' A B B G 2.D.~.~.~.Q.Q.Q.Q._.P.K o                             ",
"              $ # X o.E.b.D.D.N         O Z g.~.~.~.~.E.~.E.E.~.Q.L.G.L.T./.!.E.E.~.E.~.Q.~.D.J +                               ",
"              B 0.K b.r.< 0 X.N       O : : 0 9.L.~.~.~.E.~.~.E.~.~.~.~.E.!.!.E.E.E././.Q.t.v * > O                             ",
"            + # o.T.~.K     + H 0     # 9 w 4 * S t.P.~././.~.E.~.~.~.~.!.!.!.!././.L.a.K : > 9 w $                             ",
"            < ..] L./.o.o   1 v.|     * w w w 5 : * N | u.v.T.E.~././.~.!.W.T.D.a.X.A : = 9 w w w : O                           ",
"            + H D././.D.' Z 9.~.o.O O > w w w w w : O X # 1 Z L ' [ | { ' K S 0 $ o o * w w w w w 5 O                           ",
"            0 [ D./.E.~.W.Y./.L.S   O 5 w w w 9 = O         . . S o.o.o...# .         O * 8 w 9 w 9 #                           ",
"            # ( d.W././.~./.L.' O   O 4 4 > & O O         @ r r ' L.L.L.f.8 y & O       o + * : > > * O                         ",
"                = J e.v.E./.d.$     O O O O         + 8 u #.:.%.> S F F 0 y :.=.d 6 =         O O O O                           ",
"                    + 1 ..q.D 2 O               o @ T A.Z.4.*.*.6 3.'.K.D h ;.>.N.A.8.6 O o                                     ",
"                      X @ t k =.7             - s 7 y ,.Z.[.B.4.i  .}.S.r -.6.].[.7.g 3 i i @                                   ",
"                      + f ;.:.:.j @         ; $.>.-.s 2 u <.Z.[.8.D {.1.T Z.[.B.l 2 t %.;.;.u O                                 ",
"                      O i :.;.;.-.r       ; $.:.;.-.-.k O : i 5.Z.L r.G p.B.l 7 % y ;.=.;.;.#.@                                 ",
"                        ; =.;.;.>.k @   - $.:.;.:.d f -.7 C V ; s p 0 r l 6 c P , k -.y &.:.=.3                                 ",
"                        O d :.;.;.;.y & #.:.;.;.:.i i >.j , U R M = O # x U R c u ;.&.2 &.:.;.t                                 ",
"                          3 =.:.;.;.=.%.:.;.;.;.:.s u ;.;.k 6 x M c # z V n 4 s -.>.&.7 *.;.;.u                                 ",
"                          O a :.;.;.;.:.;.;.;.:.-.y u ;.;.>.-.#.u # E z 7 h &.;.;.>.%.2 =.;.:.i                                 ",
"                            & %.:.;.;.:.;.;.:.&.r O r ;.;.;.;.>.k c ^ P u >.>.;.;.:.#.7 -.;.:.a O                               ",
"                              r -.:.;.;.:.;.h 2 O   r ;.;.;.;.>.p M @.W q *.;.;.:.:.k r ;.;.:.i                                 ",
"                              O y *.;.-.k y @       7 ;.;.;.;.;.y U ^ Q 5 &.;.;.;.:.h r ;.;.;.i                                 ",
"                                O ; t 2 @           3 *.:.;.;.;.y U @.~ 5 &.>.;.;.:.f y ;.;.;.y                                 ",
"                                                    & &.;.;.;.>.d m ^ R 6 ;.;.;.;.:.i i :.;.;.6                                 ",
"                                                    @ %.>.;.;.;.%., R n a >.;.;.;.;.u d :.;.-.;                                 ",
"                                                    @ j ;.;.;.;.>.d 2 t *.;.;.;.;.;.r h :.:.%.&                                 ",
"                                                    + j >.;.;.;.;.;.&.*.:.;.;.;.;.;.y $.:.:.#.@                                 "
};
